<svg xmlns="http://www.w3.org/2000/svg" xmlns:xlink="http://www.w3.org/1999/xlink" width="500" zoomAndPan="magnify" viewBox="0 0 375 374.999991" height="500" preserveAspectRatio="xMidYMid meet" version="1.0"><defs><g/><clipPath id="037d0db2ce"><path d="M 23.476562 126.882812 L 351.222656 126.882812 L 351.222656 236.382812 L 23.476562 236.382812 Z M 23.476562 126.882812 " clip-rule="nonzero"/></clipPath><clipPath id="48f823c05b"><path d="M 64.332031 224.683594 L 310.667969 224.683594 L 310.667969 248.117188 L 64.332031 248.117188 Z M 64.332031 224.683594 " clip-rule="nonzero"/></clipPath></defs><rect x="-37.5" width="450" fill="#ffffff" y="-37.499999" height="449.999989" fill-opacity="1"/><rect x="-37.5" width="450" fill="#ffffff" y="-37.499999" height="449.999989" fill-opacity="1"/><g clip-path="url(#037d0db2ce)"><path stroke-linecap="butt" transform="matrix(0.75, 0, 0, 0.75, 23.47538, 126.883321)" fill="none" stroke-linejoin="miter" d="M 0.00157635 -0.000678357 L 437.381813 -0.000678357 L 437.381813 146.014956 L 0.00157635 146.014956 Z M 0.00157635 -0.000678357 " stroke="#060606" stroke-width="2" stroke-opacity="1" stroke-miterlimit="4"/></g><g fill="#060606" fill-opacity="1"><g transform="translate(36.94802, 197.654042)"><g><path d="M 15.75 -35.390625 C 21.644531 -35.390625 26.054688 -33.914062 28.984375 -30.96875 C 31.921875 -28.019531 33.390625 -23.726562 33.390625 -18.09375 C 33.390625 -14.457031 32.671875 -11.273438 31.234375 -8.546875 C 29.804688 -5.816406 27.734375 -3.707031 25.015625 -2.21875 C 22.296875 -0.738281 19.054688 0 15.296875 0 L 12.390625 -0.046875 C 10.523438 -0.117188 9.160156 -0.15625 8.296875 -0.15625 C 5.566406 -0.15625 3.5 -0.101562 2.09375 0 L 2.09375 -1 C 3.300781 -1.0625 4.175781 -1.191406 4.71875 -1.390625 C 5.269531 -1.597656 5.644531 -1.984375 5.84375 -2.546875 C 6.039062 -3.117188 6.140625 -4.035156 6.140625 -5.296875 L 6.140625 -30.09375 C 6.140625 -31.351562 6.039062 -32.265625 5.84375 -32.828125 C 5.644531 -33.398438 5.269531 -33.785156 4.71875 -33.984375 C 4.175781 -34.191406 3.300781 -34.328125 2.09375 -34.390625 L 2.09375 -35.390625 C 3.257812 -35.285156 4.878906 -35.234375 6.953125 -35.234375 L 11.203125 -35.28125 C 13.460938 -35.351562 14.976562 -35.390625 15.75 -35.390625 Z M 14.5 -34.484375 C 13.46875 -34.484375 12.691406 -34.367188 12.171875 -34.140625 C 11.648438 -33.910156 11.289062 -33.492188 11.09375 -32.890625 C 10.894531 -32.285156 10.796875 -31.382812 10.796875 -30.1875 L 10.796875 -5.203125 C 10.796875 -4.003906 10.894531 -3.101562 11.09375 -2.5 C 11.289062 -1.894531 11.648438 -1.476562 12.171875 -1.25 C 12.691406 -1.019531 13.484375 -0.90625 14.546875 -0.90625 C 18.078125 -0.90625 20.859375 -1.546875 22.890625 -2.828125 C 24.921875 -4.109375 26.34375 -5.976562 27.15625 -8.4375 C 27.976562 -10.90625 28.390625 -14.054688 28.390625 -17.890625 C 28.390625 -21.722656 27.9375 -24.847656 27.03125 -27.265625 C 26.132812 -29.679688 24.675781 -31.488281 22.65625 -32.6875 C 20.644531 -33.882812 17.925781 -34.484375 14.5 -34.484375 Z M 14.5 -34.484375 "/></g></g></g><g fill="#060606" fill-opacity="1"><g transform="translate(71.581728, 197.654042)"><g><path d="M 8.140625 0.34375 C 6.046875 0.34375 4.488281 -0.175781 3.46875 -1.21875 C 2.457031 -2.269531 1.953125 -3.726562 1.953125 -5.59375 C 1.953125 -7.09375 2.359375 -8.328125 3.171875 -9.296875 C 3.992188 -10.265625 4.960938 -11.03125 6.078125 -11.59375 C 7.191406 -12.164062 8.664062 -12.765625 10.5 -13.390625 C 12.363281 -14.023438 13.742188 -14.609375 14.640625 -15.140625 C 15.546875 -15.671875 16 -16.390625 16 -17.296875 L 16 -20.390625 C 16 -22.328125 15.585938 -23.648438 14.765625 -24.359375 C 13.953125 -25.078125 12.8125 -25.4375 11.34375 -25.4375 C 9.007812 -25.4375 7.359375 -24.835938 6.390625 -23.640625 C 7.054688 -23.472656 7.613281 -23.125 8.0625 -22.59375 C 8.519531 -22.0625 8.75 -21.394531 8.75 -20.59375 C 8.75 -19.757812 8.476562 -19.097656 7.9375 -18.609375 C 7.40625 -18.128906 6.722656 -17.890625 5.890625 -17.890625 C 4.960938 -17.890625 4.265625 -18.179688 3.796875 -18.765625 C 3.328125 -19.347656 3.09375 -20.054688 3.09375 -20.890625 C 3.09375 -21.691406 3.285156 -22.359375 3.671875 -22.890625 C 4.054688 -23.421875 4.628906 -23.957031 5.390625 -24.5 C 6.191406 -25.0625 7.207031 -25.523438 8.4375 -25.890625 C 9.675781 -26.253906 11.03125 -26.4375 12.5 -26.4375 C 15.09375 -26.4375 17.054688 -25.820312 18.390625 -24.59375 C 19.222656 -23.820312 19.78125 -22.894531 20.0625 -21.8125 C 20.351562 -20.726562 20.5 -19.304688 20.5 -17.546875 L 20.5 -3.65625 C 20.5 -2.820312 20.613281 -2.21875 20.84375 -1.84375 C 21.070312 -1.476562 21.472656 -1.296875 22.046875 -1.296875 C 22.441406 -1.296875 22.8125 -1.382812 23.15625 -1.5625 C 23.507812 -1.75 23.890625 -2.007812 24.296875 -2.34375 L 24.84375 -1.5 C 23.976562 -0.832031 23.234375 -0.359375 22.609375 -0.078125 C 21.992188 0.203125 21.222656 0.34375 20.296875 0.34375 C 18.691406 0.34375 17.570312 -0.0507812 16.9375 -0.84375 C 16.3125 -1.644531 16 -2.726562 16 -4.09375 C 15 -2.425781 13.847656 -1.269531 12.546875 -0.625 C 11.242188 0.0195312 9.773438 0.34375 8.140625 0.34375 Z M 10.34375 -1.65625 C 12.539062 -1.65625 14.425781 -2.921875 16 -5.453125 L 16 -15.25 C 15.695312 -14.78125 15.28125 -14.394531 14.75 -14.09375 C 14.21875 -13.789062 13.398438 -13.390625 12.296875 -12.890625 C 11.023438 -12.359375 10 -11.847656 9.21875 -11.359375 C 8.4375 -10.878906 7.757812 -10.222656 7.1875 -9.390625 C 6.625 -8.554688 6.34375 -7.492188 6.34375 -6.203125 C 6.34375 -4.703125 6.707031 -3.566406 7.4375 -2.796875 C 8.175781 -2.035156 9.144531 -1.65625 10.34375 -1.65625 Z M 10.34375 -1.65625 "/></g></g></g><g fill="#060606" fill-opacity="1"><g transform="translate(94.970609, 197.654042)"><g><path d="M 17 -26.4375 C 18.332031 -26.4375 19.421875 -26.050781 20.265625 -25.28125 C 21.117188 -24.519531 21.546875 -23.59375 21.546875 -22.5 C 21.546875 -21.625 21.285156 -20.878906 20.765625 -20.265625 C 20.253906 -19.648438 19.5625 -19.34375 18.6875 -19.34375 C 17.957031 -19.34375 17.332031 -19.578125 16.8125 -20.046875 C 16.300781 -20.515625 16.046875 -21.144531 16.046875 -21.9375 C 16.046875 -23.039062 16.613281 -23.941406 17.75 -24.640625 C 17.507812 -24.972656 17.15625 -25.140625 16.6875 -25.140625 C 15.394531 -25.140625 14.210938 -24.628906 13.140625 -23.609375 C 12.078125 -22.597656 11.242188 -21.359375 10.640625 -19.890625 C 10.046875 -18.421875 9.75 -17.039062 9.75 -15.75 L 9.75 -5.140625 C 9.75 -3.609375 10.1875 -2.539062 11.0625 -1.9375 C 11.945312 -1.34375 13.273438 -1.046875 15.046875 -1.046875 L 15.046875 0 L 13.84375 -0.046875 C 10.445312 -0.148438 8.28125 -0.203125 7.34375 -0.203125 C 6.476562 -0.203125 4.515625 -0.132812 1.453125 0 L 1.453125 -1.046875 C 2.847656 -1.046875 3.828125 -1.300781 4.390625 -1.8125 C 4.960938 -2.332031 5.25 -3.28125 5.25 -4.65625 L 5.25 -20.296875 C 5.25 -21.828125 4.960938 -22.941406 4.390625 -23.640625 C 3.828125 -24.335938 2.847656 -24.6875 1.453125 -24.6875 L 1.453125 -25.734375 C 2.515625 -25.640625 3.546875 -25.59375 4.546875 -25.59375 C 6.648438 -25.59375 8.382812 -25.828125 9.75 -26.296875 L 9.75 -20.046875 C 10.34375 -21.710938 11.296875 -23.191406 12.609375 -24.484375 C 13.929688 -25.785156 15.394531 -26.4375 17 -26.4375 Z M 17 -26.4375 "/></g></g></g><g fill="#060606" fill-opacity="1"><g transform="translate(115.710706, 197.654042)"><g><path d="M 10.390625 -26.4375 C 11.597656 -26.4375 12.664062 -26.253906 13.59375 -25.890625 C 14.53125 -25.523438 15.28125 -25.09375 15.84375 -24.59375 C 16.207031 -24.320312 16.507812 -24.1875 16.75 -24.1875 C 17.34375 -24.1875 17.707031 -24.921875 17.84375 -26.390625 L 19 -26.390625 C 18.863281 -24.753906 18.796875 -21.921875 18.796875 -17.890625 L 17.640625 -17.890625 C 17.273438 -20.085938 16.566406 -21.898438 15.515625 -23.328125 C 14.472656 -24.765625 12.914062 -25.484375 10.84375 -25.484375 C 9.644531 -25.484375 8.660156 -25.140625 7.890625 -24.453125 C 7.128906 -23.773438 6.75 -22.835938 6.75 -21.640625 C 6.75 -20.472656 7.144531 -19.5 7.9375 -18.71875 C 8.738281 -17.9375 10.023438 -16.992188 11.796875 -15.890625 C 12.097656 -15.722656 12.546875 -15.441406 13.140625 -15.046875 C 14.671875 -14.046875 15.90625 -13.160156 16.84375 -12.390625 C 17.78125 -11.628906 18.539062 -10.75 19.125 -9.75 C 19.707031 -8.75 20 -7.597656 20 -6.296875 C 20 -4.097656 19.171875 -2.378906 17.515625 -1.140625 C 15.867188 0.0859375 13.847656 0.703125 11.453125 0.703125 C 9.953125 0.703125 8.632812 0.46875 7.5 0 C 6.757812 -0.363281 6.078125 -0.8125 5.453125 -1.34375 C 5.316406 -1.476562 5.164062 -1.546875 5 -1.546875 C 4.769531 -1.546875 4.5625 -1.378906 4.375 -1.046875 C 4.1875 -0.710938 4.046875 -0.25 3.953125 0.34375 L 2.796875 0.34375 C 2.929688 -1.550781 3 -4.878906 3 -9.640625 L 4.15625 -9.640625 C 4.519531 -6.515625 5.179688 -4.175781 6.140625 -2.625 C 7.109375 -1.070312 8.757812 -0.296875 11.09375 -0.296875 C 12.257812 -0.296875 13.289062 -0.675781 14.1875 -1.4375 C 15.09375 -2.207031 15.546875 -3.410156 15.546875 -5.046875 C 15.546875 -6.347656 15.101562 -7.445312 14.21875 -8.34375 C 13.332031 -9.25 11.890625 -10.332031 9.890625 -11.59375 C 8.265625 -12.625 7.007812 -13.472656 6.125 -14.140625 C 5.238281 -14.804688 4.492188 -15.625 3.890625 -16.59375 C 3.296875 -17.5625 3 -18.695312 3 -20 C 3 -22.09375 3.695312 -23.6875 5.09375 -24.78125 C 6.5 -25.882812 8.265625 -26.4375 10.390625 -26.4375 Z M 10.390625 -26.4375 "/></g></g></g><g fill="#060606" fill-opacity="1"><g transform="translate(136.550763, 197.654042)"><g><path d="M 9.296875 -20.4375 C 10.128906 -22.539062 11.285156 -24.066406 12.765625 -25.015625 C 14.253906 -25.960938 15.929688 -26.4375 17.796875 -26.4375 C 20.128906 -26.4375 21.894531 -25.804688 23.09375 -24.546875 C 23.726562 -23.878906 24.175781 -23.046875 24.4375 -22.046875 C 24.707031 -21.046875 24.84375 -19.695312 24.84375 -18 L 24.84375 -4.65625 C 24.84375 -3.28125 25.125 -2.332031 25.6875 -1.8125 C 26.257812 -1.300781 27.242188 -1.046875 28.640625 -1.046875 L 28.640625 0 C 25.578125 -0.132812 23.578125 -0.203125 22.640625 -0.203125 C 21.710938 -0.203125 19.847656 -0.132812 17.046875 0 L 17.046875 -1.046875 C 18.273438 -1.046875 19.128906 -1.300781 19.609375 -1.8125 C 20.097656 -2.332031 20.34375 -3.28125 20.34375 -4.65625 L 20.34375 -19.09375 C 20.34375 -20.957031 20.078125 -22.378906 19.546875 -23.359375 C 19.015625 -24.347656 17.929688 -24.84375 16.296875 -24.84375 C 14.929688 -24.84375 13.722656 -24.457031 12.671875 -23.6875 C 11.617188 -22.925781 10.789062 -21.851562 10.1875 -20.46875 C 9.59375 -19.082031 9.296875 -17.523438 9.296875 -15.796875 L 9.296875 -4.65625 C 9.296875 -3.28125 9.535156 -2.332031 10.015625 -1.8125 C 10.503906 -1.300781 11.363281 -1.046875 12.59375 -1.046875 L 12.59375 0 C 9.789062 -0.132812 7.925781 -0.203125 7 -0.203125 C 6.0625 -0.203125 4.0625 -0.132812 1 0 L 1 -1.046875 C 2.394531 -1.046875 3.375 -1.300781 3.9375 -1.8125 C 4.507812 -2.332031 4.796875 -3.28125 4.796875 -4.65625 L 4.796875 -33.140625 C 4.796875 -34.671875 4.507812 -35.785156 3.9375 -36.484375 C 3.375 -37.179688 2.394531 -37.53125 1 -37.53125 L 1 -38.59375 C 2.0625 -38.488281 3.09375 -38.4375 4.09375 -38.4375 C 6.195312 -38.4375 7.929688 -38.671875 9.296875 -39.140625 Z M 9.296875 -20.4375 "/></g></g></g><g fill="#060606" fill-opacity="1"><g transform="translate(164.437572, 197.654042)"><g><path d="M 23.140625 -6 C 22.546875 -4.164062 21.421875 -2.585938 19.765625 -1.265625 C 18.117188 0.046875 16.128906 0.703125 13.796875 0.703125 C 11.429688 0.703125 9.378906 0.160156 7.640625 -0.921875 C 5.910156 -2.003906 4.585938 -3.519531 3.671875 -5.46875 C 2.753906 -7.414062 2.296875 -9.675781 2.296875 -12.25 C 2.296875 -15.144531 2.757812 -17.660156 3.6875 -19.796875 C 4.625 -21.929688 5.941406 -23.570312 7.640625 -24.71875 C 9.347656 -25.863281 11.332031 -26.4375 13.59375 -26.4375 C 16.59375 -26.4375 18.898438 -25.53125 20.515625 -23.71875 C 22.128906 -21.90625 22.9375 -19.144531 22.9375 -15.4375 L 7.296875 -15.4375 C 7.191406 -14.507812 7.140625 -13.445312 7.140625 -12.25 C 7.140625 -10.050781 7.5 -8.132812 8.21875 -6.5 C 8.9375 -4.863281 9.882812 -3.601562 11.0625 -2.71875 C 12.25 -1.84375 13.492188 -1.40625 14.796875 -1.40625 C 16.390625 -1.40625 17.800781 -1.785156 19.03125 -2.546875 C 20.269531 -3.316406 21.304688 -4.597656 22.140625 -6.390625 Z M 13.390625 -25.484375 C 11.828125 -25.484375 10.476562 -24.71875 9.34375 -23.1875 C 8.207031 -21.65625 7.507812 -19.390625 7.25 -16.390625 L 18.140625 -16.390625 C 18.210938 -18.992188 17.835938 -21.160156 17.015625 -22.890625 C 16.203125 -24.617188 14.992188 -25.484375 13.390625 -25.484375 Z M 13.390625 -25.484375 "/></g></g></g><g fill="#060606" fill-opacity="1"><g transform="translate(188.226266, 197.654042)"><g><path d="M 18.25 -26.4375 C 20.582031 -26.4375 22.347656 -25.804688 23.546875 -24.546875 C 24.179688 -23.878906 24.628906 -23.046875 24.890625 -22.046875 C 25.160156 -21.046875 25.296875 -19.695312 25.296875 -18 L 25.296875 -4.65625 C 25.296875 -3.28125 25.578125 -2.332031 26.140625 -1.8125 C 26.703125 -1.300781 27.6875 -1.046875 29.09375 -1.046875 L 29.09375 0 C 26.03125 -0.132812 24.03125 -0.203125 23.09375 -0.203125 C 22.15625 -0.203125 20.289062 -0.132812 17.5 0 L 17.5 -1.046875 C 18.726562 -1.046875 19.582031 -1.300781 20.0625 -1.8125 C 20.550781 -2.332031 20.796875 -3.28125 20.796875 -4.65625 L 20.796875 -19.09375 C 20.796875 -20.957031 20.523438 -22.378906 19.984375 -23.359375 C 19.453125 -24.347656 18.375 -24.84375 16.75 -24.84375 C 15.382812 -24.84375 14.164062 -24.441406 13.09375 -23.640625 C 12.03125 -22.835938 11.207031 -21.742188 10.625 -20.359375 C 10.039062 -18.984375 9.75 -17.445312 9.75 -15.75 L 9.75 -4.65625 C 9.75 -3.28125 9.988281 -2.332031 10.46875 -1.8125 C 10.957031 -1.300781 11.816406 -1.046875 13.046875 -1.046875 L 13.046875 0 C 10.242188 -0.132812 8.378906 -0.203125 7.453125 -0.203125 C 6.515625 -0.203125 4.515625 -0.132812 1.453125 0 L 1.453125 -1.046875 C 2.847656 -1.046875 3.828125 -1.300781 4.390625 -1.8125 C 4.960938 -2.332031 5.25 -3.28125 5.25 -4.65625 L 5.25 -20.296875 C 5.25 -21.828125 4.960938 -22.941406 4.390625 -23.640625 C 3.828125 -24.335938 2.847656 -24.6875 1.453125 -24.6875 L 1.453125 -25.734375 C 2.515625 -25.640625 3.546875 -25.59375 4.546875 -25.59375 C 6.648438 -25.59375 8.382812 -25.828125 9.75 -26.296875 L 9.75 -20.390625 C 10.582031 -22.523438 11.738281 -24.066406 13.21875 -25.015625 C 14.695312 -25.960938 16.375 -26.4375 18.25 -26.4375 Z M 18.25 -26.4375 "/></g></g></g><g fill="#060606" fill-opacity="1"><g transform="translate(224.142412, 212.885149)"><g><path d="M 41.40625 -26.578125 C 41.457031 -26.523438 41.484375 -26.414062 41.484375 -26.25 C 41.429688 -26.1875 41.179688 -25.988281 40.734375 -25.65625 C 40.066406 -25.320312 39.132812 -24.847656 37.9375 -24.234375 C 36.75 -23.628906 35.988281 -23.242188 35.65625 -23.078125 C 32.269531 -21.191406 30.019531 -19.882812 28.90625 -19.15625 C 28.070312 -18.550781 27.488281 -17.882812 27.15625 -17.15625 C 25.550781 -13.65625 23.46875 -10.828125 20.90625 -8.671875 C 20.351562 -8.222656 19.800781 -7.832031 19.25 -7.5 C 19.082031 -7.332031 18.75 -7.191406 18.25 -7.078125 C 17.851562 -7.023438 17.503906 -7.125 17.203125 -7.375 C 16.898438 -7.625 16.800781 -7.941406 16.90625 -8.328125 C 17.019531 -8.890625 17.1875 -9.304688 17.40625 -9.578125 C 17.570312 -9.910156 17.878906 -10.351562 18.328125 -10.90625 C 20.992188 -14.070312 23.46875 -16.488281 25.75 -18.15625 C 26.46875 -18.65625 26.992188 -19.351562 27.328125 -20.25 C 28.609375 -23.46875 29.75 -27.519531 30.75 -32.40625 C 31.46875 -36.289062 31.796875 -39.875 31.734375 -43.15625 C 31.628906 -45.207031 31.300781 -47.179688 30.75 -49.078125 C 30.46875 -50.078125 30.101562 -50.851562 29.65625 -51.40625 C 28.769531 -52.570312 27.632812 -52.929688 26.25 -52.484375 C 25.414062 -52.148438 24.523438 -51.597656 23.578125 -50.828125 C 21.960938 -49.492188 20.546875 -47.742188 19.328125 -45.578125 C 17.941406 -43.296875 16.523438 -40.097656 15.078125 -35.984375 C 12.742188 -29.328125 10.742188 -22.582031 9.078125 -15.75 C 7.304688 -8.582031 5.53125 -0.722656 3.75 7.828125 C 3.632812 8.492188 3.328125 9.800781 2.828125 11.75 C 2.828125 11.800781 2.691406 12.160156 2.421875 12.828125 C 2.253906 13.109375 2.03125 13.25 1.75 13.25 C 1.46875 13.1875 1.242188 13.019531 1.078125 12.75 C 0.910156 12.351562 0.828125 11.9375 0.828125 11.5 C 0.828125 9.78125 0.859375 8.503906 0.921875 7.671875 C 1.191406 3.109375 1.910156 -2.28125 3.078125 -8.5 L 6.078125 -24.25 C 6.742188 -27.800781 7.800781 -33.128906 9.25 -40.234375 C 9.914062 -43.566406 10.359375 -46.207031 10.578125 -48.15625 C 10.578125 -48.601562 10.6875 -48.878906 10.90625 -48.984375 C 11.019531 -49.046875 11.160156 -48.976562 11.328125 -48.78125 C 11.492188 -48.582031 11.601562 -48.375 11.65625 -48.15625 C 11.769531 -47.488281 11.769531 -46.488281 11.65625 -45.15625 C 11.320312 -41.65625 10.328125 -35.570312 8.671875 -26.90625 L 5.421875 -9.75 C 5.253906 -8.800781 4.960938 -7.175781 4.546875 -4.875 C 4.128906 -2.570312 3.804688 -0.804688 3.578125 0.421875 L 2.828125 6.171875 L 2.828125 6.921875 C 3.109375 6.523438 3.304688 5.96875 3.421875 5.25 C 5.253906 -3.132812 7.253906 -11.550781 9.421875 -20 C 11.242188 -27 13.351562 -33.660156 15.75 -39.984375 C 16.851562 -42.929688 18.210938 -45.597656 19.828125 -47.984375 C 20.992188 -49.710938 22.382812 -51.15625 24 -52.3125 C 24.769531 -52.8125 25.601562 -53.226562 26.5 -53.5625 C 27.832031 -53.957031 29.023438 -53.597656 30.078125 -52.484375 C 30.578125 -51.929688 31.019531 -51.15625 31.40625 -50.15625 C 32.125 -48.269531 32.566406 -46.160156 32.734375 -43.828125 C 32.960938 -39.828125 32.578125 -35.46875 31.578125 -30.75 C 30.859375 -27.300781 30 -24.160156 29 -21.328125 C 29 -21.273438 28.96875 -21.148438 28.90625 -20.953125 C 28.851562 -20.753906 28.800781 -20.570312 28.75 -20.40625 C 29.1875 -20.632812 30.082031 -21.125 31.4375 -21.875 C 32.800781 -22.625 33.847656 -23.164062 34.578125 -23.5 L 40.328125 -26.40625 C 40.765625 -26.632812 41.097656 -26.71875 41.328125 -26.65625 Z M 25 -15.65625 L 25 -16 C 24.882812 -16 24.800781 -15.96875 24.75 -15.90625 C 22.800781 -14.300781 20.769531 -12.222656 18.65625 -9.671875 C 18.550781 -9.554688 18.382812 -9.191406 18.15625 -8.578125 C 18.050781 -8.578125 18.082031 -8.492188 18.25 -8.328125 L 18.40625 -8.328125 C 18.570312 -8.390625 18.820312 -8.53125 19.15625 -8.75 C 21.488281 -10.519531 23.4375 -12.820312 25 -15.65625 Z M 25 -15.65625 "/></g></g></g><g fill="#060606" fill-opacity="1"><g transform="translate(263.963286, 212.885149)"><g><path d="M 9.921875 -22.90625 C 8.691406 -22.570312 7.992188 -23.046875 7.828125 -24.328125 C 7.773438 -24.992188 7.832031 -25.742188 8 -26.578125 C 8.113281 -27.191406 8.140625 -27.582031 8.078125 -27.75 C 7.972656 -27.75 7.863281 -27.71875 7.75 -27.65625 C 7.632812 -27.601562 7.550781 -27.546875 7.5 -27.484375 C 7.445312 -27.429688 7.378906 -27.363281 7.296875 -27.28125 C 7.210938 -27.195312 7.140625 -27.128906 7.078125 -27.078125 C 5.804688 -25.960938 4.640625 -25.15625 3.578125 -24.65625 C 3.191406 -24.4375 2.804688 -24.242188 2.421875 -24.078125 C 1.859375 -23.910156 1.425781 -23.960938 1.125 -24.234375 C 0.820312 -24.515625 0.722656 -24.9375 0.828125 -25.5 C 0.828125 -25.601562 0.882812 -25.820312 1 -26.15625 C 1.332031 -26.9375 1.832031 -27.578125 2.5 -28.078125 C 3.664062 -28.910156 4.832031 -28.910156 6 -28.078125 L 6.078125 -28 L 6.171875 -28 C 6.554688 -27.71875 6.890625 -27.71875 7.171875 -28 L 8.75 -29.578125 C 9.03125 -29.796875 9.253906 -29.820312 9.421875 -29.65625 C 9.585938 -29.488281 9.613281 -29.351562 9.5 -29.25 C 9.445312 -28.800781 9.304688 -28.132812 9.078125 -27.25 C 8.804688 -26.1875 8.695312 -25.210938 8.75 -24.328125 C 8.800781 -23.878906 9.078125 -23.6875 9.578125 -23.75 C 10.410156 -23.851562 12.632812 -24.769531 16.25 -26.5 C 16.46875 -26.5 16.601562 -26.441406 16.65625 -26.328125 C 16.769531 -26.046875 16.632812 -25.796875 16.25 -25.578125 C 13.351562 -24.128906 11.242188 -23.238281 9.921875 -22.90625 Z M 2.828125 -25.15625 C 3.441406 -25.382812 4.082031 -25.691406 4.75 -26.078125 C 5.132812 -26.359375 5.359375 -26.582031 5.421875 -26.75 C 5.472656 -26.851562 5.398438 -26.945312 5.203125 -27.03125 C 5.015625 -27.113281 4.78125 -27.15625 4.5 -27.15625 C 4.050781 -27.050781 3.71875 -26.941406 3.5 -26.828125 C 2.832031 -26.328125 2.390625 -25.800781 2.171875 -25.25 C 2.441406 -25.019531 2.660156 -24.988281 2.828125 -25.15625 Z M 2.828125 -25.15625 "/></g></g></g><g fill="#060606" fill-opacity="1"><g transform="translate(278.958592, 212.885149)"><g><path d="M 37.078125 -46.65625 C 37.128906 -46.65625 37.15625 -46.625 37.15625 -46.5625 C 37.15625 -46.507812 37.128906 -46.484375 37.078125 -46.484375 L 36.734375 -46.15625 C 35.515625 -45.488281 34.40625 -45.015625 33.40625 -44.734375 C 31.1875 -44.234375 28.578125 -43.984375 25.578125 -43.984375 C 24.859375 -43.984375 21.984375 -44.007812 16.953125 -44.0625 C 11.929688 -44.125 8.804688 -44.15625 7.578125 -44.15625 L 6.078125 -44.15625 C 5.191406 -40.707031 4.722656 -38.847656 4.671875 -38.578125 C 3.335938 -33.023438 2.503906 -26.941406 2.171875 -20.328125 C 2.054688 -18.660156 2.164062 -17.101562 2.5 -15.65625 C 2.71875 -14.65625 2.941406 -13.960938 3.171875 -13.578125 C 3.671875 -12.359375 4.554688 -12.023438 5.828125 -12.578125 C 6.054688 -12.691406 6.390625 -12.914062 6.828125 -13.25 C 8.222656 -14.1875 9.472656 -15.40625 10.578125 -16.90625 C 11.910156 -18.6875 13.851562 -21.410156 16.40625 -25.078125 C 17.070312 -25.910156 17.519531 -26.351562 17.75 -26.40625 C 17.800781 -26.1875 17.8125 -26.046875 17.78125 -25.984375 C 17.757812 -25.929688 17.625 -25.722656 17.375 -25.359375 C 17.125 -25.003906 16.96875 -24.800781 16.90625 -24.75 C 14.851562 -21.800781 12.742188 -18.9375 10.578125 -16.15625 C 9.472656 -14.769531 8.363281 -13.632812 7.25 -12.75 C 6.800781 -12.351562 6.328125 -12.046875 5.828125 -11.828125 C 4.660156 -11.109375 3.578125 -11.359375 2.578125 -12.578125 C 2.242188 -12.960938 1.941406 -13.546875 1.671875 -14.328125 C 1.109375 -15.992188 0.828125 -17.800781 0.828125 -19.75 C 0.722656 -24.132812 1.003906 -28.378906 1.671875 -32.484375 C 2.171875 -35.984375 2.945312 -39.875 4 -44.15625 C -0.382812 -44.15625 -4.992188 -43.90625 -9.828125 -43.40625 C -12.328125 -43.1875 -14.1875 -42.878906 -15.40625 -42.484375 C -16.738281 -41.984375 -17.546875 -41.457031 -17.828125 -40.90625 C -17.828125 -40.851562 -17.910156 -40.828125 -18.078125 -40.828125 C -18.242188 -40.992188 -18.328125 -41.128906 -18.328125 -41.234375 C -18.378906 -41.566406 -18.238281 -41.898438 -17.90625 -42.234375 C -17.519531 -42.566406 -16.992188 -42.847656 -16.328125 -43.078125 C -15.210938 -43.515625 -13.738281 -43.847656 -11.90625 -44.078125 C -6.75 -44.679688 -1.835938 -44.984375 2.828125 -44.984375 L 4.171875 -44.984375 C 4.171875 -45.148438 4.210938 -45.398438 4.296875 -45.734375 C 4.378906 -46.066406 4.445312 -46.347656 4.5 -46.578125 C 5.5 -50.296875 7.054688 -54.570312 9.171875 -59.40625 C 9.273438 -59.570312 9.410156 -59.847656 9.578125 -60.234375 C 9.742188 -60.617188 9.882812 -60.925781 10 -61.15625 L 10.421875 -61.90625 C 10.742188 -62.457031 11.097656 -62.648438 11.484375 -62.484375 C 11.878906 -62.316406 11.992188 -61.925781 11.828125 -61.3125 C 11.773438 -60.925781 11.632812 -60.398438 11.40625 -59.734375 C 11.1875 -59.117188 10.867188 -58.253906 10.453125 -57.140625 C 10.035156 -56.035156 9.742188 -55.289062 9.578125 -54.90625 C 8.359375 -51.738281 7.390625 -48.90625 6.671875 -46.40625 L 6.25 -44.90625 C 12.25 -44.789062 16.632812 -44.734375 19.40625 -44.734375 C 20.132812 -44.734375 21.257812 -44.707031 22.78125 -44.65625 C 24.3125 -44.601562 25.46875 -44.578125 26.25 -44.578125 C 27.851562 -44.578125 29.820312 -44.769531 32.15625 -45.15625 C 33.320312 -45.4375 34.628906 -45.910156 36.078125 -46.578125 L 36.828125 -46.828125 C 36.878906 -46.828125 36.960938 -46.769531 37.078125 -46.65625 Z M 37.078125 -46.65625 "/></g></g></g><g fill="#060606" fill-opacity="1"><g transform="translate(294.870278, 212.885149)"><g><path d="M 2.671875 -19.90625 C 1.273438 -20.019531 0.410156 -20.800781 0.078125 -22.25 C 0.0234375 -22.582031 0 -23.050781 0 -23.65625 C 0 -25.382812 0.359375 -26.882812 1.078125 -28.15625 C 1.523438 -28.820312 1.890625 -29.269531 2.171875 -29.5 C 2.609375 -29.832031 3.109375 -30 3.671875 -30 C 4.273438 -30 4.691406 -29.773438 4.921875 -29.328125 C 5.253906 -28.828125 5.195312 -28.300781 4.75 -27.75 C 3.75 -26.6875 2.804688 -26.046875 1.921875 -25.828125 C 1.304688 -25.710938 0.941406 -25.269531 0.828125 -24.5 C 0.722656 -23.550781 0.804688 -22.769531 1.078125 -22.15625 C 1.410156 -21.320312 1.941406 -20.851562 2.671875 -20.75 C 4.722656 -20.519531 7.5 -22.15625 11 -25.65625 L 11.75 -26.40625 C 11.914062 -26.40625 12.023438 -26.378906 12.078125 -26.328125 C 12.128906 -26.210938 12.15625 -26.128906 12.15625 -26.078125 C 12.15625 -25.910156 12.101562 -25.769531 12 -25.65625 C 10.78125 -24.21875 9.210938 -22.882812 7.296875 -21.65625 C 5.378906 -20.4375 3.835938 -19.851562 2.671875 -19.90625 Z M 1.5 -26.90625 C 2.664062 -27.46875 3.441406 -28.023438 3.828125 -28.578125 C 3.941406 -28.628906 3.941406 -28.710938 3.828125 -28.828125 C 3.828125 -28.941406 3.742188 -29 3.578125 -29 C 3.242188 -29.101562 2.941406 -29.019531 2.671875 -28.75 C 2.054688 -28.25 1.664062 -27.632812 1.5 -26.90625 Z M 1.5 -26.90625 "/></g></g></g><g fill="#060606" fill-opacity="1"><g transform="translate(305.366989, 212.885149)"><g><path d="M 8.328125 -17.328125 C 5.660156 -17.328125 3.632812 -18.550781 2.25 -21 C 2.195312 -21.21875 2.097656 -21.519531 1.953125 -21.90625 C 1.816406 -22.300781 1.691406 -22.582031 1.578125 -22.75 C 0.523438 -24.851562 0.472656 -29.070312 1.421875 -35.40625 C 2.304688 -41.6875 4.054688 -47.796875 6.671875 -53.734375 C 7.722656 -56.117188 8.859375 -58.144531 10.078125 -59.8125 C 10.628906 -60.59375 11.4375 -61.484375 12.5 -62.484375 C 13.164062 -63.035156 13.914062 -63.535156 14.75 -63.984375 C 15.800781 -64.429688 16.828125 -64.429688 17.828125 -63.984375 C 18.828125 -63.535156 19.519531 -62.785156 19.90625 -61.734375 C 20.238281 -60.847656 20.40625 -59.707031 20.40625 -58.3125 C 20.351562 -56.257812 19.910156 -54.097656 19.078125 -51.828125 C 18.191406 -49.429688 16.664062 -46.347656 14.5 -42.578125 C 11.78125 -37.847656 8.363281 -32.820312 4.25 -27.5 C 4.082031 -27.382812 3.882812 -27.160156 3.65625 -26.828125 C 3.4375 -26.492188 3.273438 -26.269531 3.171875 -26.15625 C 2.722656 -25.65625 2.582031 -25.101562 2.75 -24.5 C 3.300781 -22.71875 3.691406 -21.632812 3.921875 -21.25 C 5.140625 -19.132812 6.972656 -18.160156 9.421875 -18.328125 C 11.742188 -18.609375 14.296875 -20.882812 17.078125 -25.15625 C 17.191406 -25.4375 17.414062 -25.800781 17.75 -26.25 C 17.800781 -26.300781 17.882812 -26.328125 18 -26.328125 C 18.164062 -26.273438 18.25 -26.132812 18.25 -25.90625 C 18.082031 -25.570312 18 -25.40625 18 -25.40625 C 15.050781 -20.1875 11.828125 -17.492188 8.328125 -17.328125 Z M 2.671875 -27 C 2.890625 -27.101562 3.273438 -27.519531 3.828125 -28.25 C 4.273438 -28.914062 5.125 -30.109375 6.375 -31.828125 C 7.625 -33.546875 8.582031 -34.878906 9.25 -35.828125 C 12.414062 -40.546875 14.914062 -44.796875 16.75 -48.578125 C 18.1875 -51.398438 19.101562 -54.175781 19.5 -56.90625 C 19.71875 -58.789062 19.632812 -60.257812 19.25 -61.3125 C 18.914062 -62.257812 18.332031 -62.882812 17.5 -63.1875 C 16.664062 -63.5 15.800781 -63.375 14.90625 -62.8125 C 14.519531 -62.539062 13.992188 -62.070312 13.328125 -61.40625 C 11.828125 -59.84375 10.492188 -57.925781 9.328125 -55.65625 C 7.492188 -52.039062 5.96875 -48.015625 4.75 -43.578125 C 3.363281 -38.679688 2.585938 -33.597656 2.421875 -28.328125 C 2.421875 -27.660156 2.503906 -27.21875 2.671875 -27 Z M 2.671875 -27 "/></g></g></g><g clip-path="url(#48f823c05b)"><path fill="#ffffff" d="M 64.332031 224.683594 L 310.667969 224.683594 L 310.667969 248.117188 L 64.332031 248.117188 Z M 64.332031 224.683594 " fill-opacity="1" fill-rule="nonzero"/></g><g fill="#060606" fill-opacity="1"><g transform="translate(120.545702, 240.900423)"><g><path d="M 1.203125 -9.171875 L 4.859375 -9.171875 C 6.015625 -9.171875 6.910156 -8.894531 7.546875 -8.34375 C 8.179688 -7.800781 8.5 -7.035156 8.5 -6.046875 C 8.5 -5.003906 8.179688 -4.195312 7.546875 -3.625 C 6.910156 -3.050781 6.015625 -2.765625 4.859375 -2.765625 L 2.75 -2.765625 L 2.75 0 L 1.203125 0 Z M 2.75 -7.78125 L 2.75 -4.15625 L 4.796875 -4.15625 C 6.273438 -4.15625 7.015625 -4.769531 7.015625 -6 C 7.015625 -7.1875 6.273438 -7.78125 4.796875 -7.78125 Z M 2.75 -7.78125 "/></g></g></g><g fill="#060606" fill-opacity="1"><g transform="translate(136.576119, 240.900423)"><g><path d="M 1.84375 -7.890625 C 2.78125 -8.773438 3.9375 -9.21875 5.3125 -9.21875 C 6.6875 -9.21875 7.835938 -8.773438 8.765625 -7.890625 C 9.703125 -7.003906 10.171875 -5.90625 10.171875 -4.59375 C 10.171875 -3.28125 9.703125 -2.175781 8.765625 -1.28125 C 7.835938 -0.382812 6.6875 0.0625 5.3125 0.0625 C 3.9375 0.0625 2.78125 -0.382812 1.84375 -1.28125 C 0.914062 -2.175781 0.453125 -3.28125 0.453125 -4.59375 C 0.453125 -5.90625 0.914062 -7.003906 1.84375 -7.890625 Z M 5.328125 -7.828125 C 4.410156 -7.828125 3.628906 -7.515625 2.984375 -6.890625 C 2.335938 -6.265625 2.015625 -5.492188 2.015625 -4.578125 C 2.015625 -3.671875 2.335938 -2.898438 2.984375 -2.265625 C 3.640625 -1.640625 4.414062 -1.328125 5.3125 -1.328125 C 6.21875 -1.328125 6.988281 -1.640625 7.625 -2.265625 C 8.269531 -2.898438 8.59375 -3.671875 8.59375 -4.578125 C 8.59375 -5.492188 8.269531 -6.265625 7.625 -6.890625 C 6.988281 -7.515625 6.222656 -7.828125 5.328125 -7.828125 Z M 5.328125 -7.828125 "/></g></g></g><g fill="#060606" fill-opacity="1"><g transform="translate(154.401449, 240.900423)"><g><path d="M 7.03125 0 L 5.34375 -2.78125 C 5.257812 -2.769531 5.117188 -2.765625 4.921875 -2.765625 L 2.75 -2.765625 L 2.75 0 L 1.203125 0 L 1.203125 -9.171875 L 4.921875 -9.171875 C 6.097656 -9.171875 7.007812 -8.894531 7.65625 -8.34375 C 8.300781 -7.800781 8.625 -7.035156 8.625 -6.046875 C 8.625 -5.304688 8.457031 -4.679688 8.125 -4.171875 C 7.800781 -3.671875 7.332031 -3.300781 6.71875 -3.0625 L 8.78125 0 Z M 2.75 -4.15625 L 4.921875 -4.15625 C 6.410156 -4.15625 7.15625 -4.769531 7.15625 -6 C 7.15625 -7.1875 6.410156 -7.78125 4.921875 -7.78125 L 2.75 -7.78125 Z M 2.75 -4.15625 "/></g></g></g><g fill="#060606" fill-opacity="1"><g transform="translate(171.086951, 240.900423)"><g><path d="M 7.46875 -7.78125 L 4.5625 -7.78125 L 4.5625 0 L 3.015625 0 L 3.015625 -7.78125 L 0.125 -7.78125 L 0.125 -9.171875 L 7.46875 -9.171875 Z M 7.46875 -7.78125 "/></g></g></g><g fill="#060606" fill-opacity="1"><g transform="translate(185.88582, 240.900423)"><g><path d="M 7.359375 -7.78125 L 2.75 -7.78125 L 2.75 -5.140625 L 6.921875 -5.140625 L 6.921875 -3.765625 L 2.75 -3.765625 L 2.75 0 L 1.203125 0 L 1.203125 -9.171875 L 7.375 -9.171875 Z M 7.359375 -7.78125 "/></g></g></g><g fill="#060606" fill-opacity="1"><g transform="translate(200.632287, 240.900423)"><g><path d="M 1.84375 -7.890625 C 2.78125 -8.773438 3.9375 -9.21875 5.3125 -9.21875 C 6.6875 -9.21875 7.835938 -8.773438 8.765625 -7.890625 C 9.703125 -7.003906 10.171875 -5.90625 10.171875 -4.59375 C 10.171875 -3.28125 9.703125 -2.175781 8.765625 -1.28125 C 7.835938 -0.382812 6.6875 0.0625 5.3125 0.0625 C 3.9375 0.0625 2.78125 -0.382812 1.84375 -1.28125 C 0.914062 -2.175781 0.453125 -3.28125 0.453125 -4.59375 C 0.453125 -5.90625 0.914062 -7.003906 1.84375 -7.890625 Z M 5.328125 -7.828125 C 4.410156 -7.828125 3.628906 -7.515625 2.984375 -6.890625 C 2.335938 -6.265625 2.015625 -5.492188 2.015625 -4.578125 C 2.015625 -3.671875 2.335938 -2.898438 2.984375 -2.265625 C 3.640625 -1.640625 4.414062 -1.328125 5.3125 -1.328125 C 6.21875 -1.328125 6.988281 -1.640625 7.625 -2.265625 C 8.269531 -2.898438 8.59375 -3.671875 8.59375 -4.578125 C 8.59375 -5.492188 8.269531 -6.265625 7.625 -6.890625 C 6.988281 -7.515625 6.222656 -7.828125 5.328125 -7.828125 Z M 5.328125 -7.828125 "/></g></g></g><g fill="#060606" fill-opacity="1"><g transform="translate(218.457614, 240.900423)"><g><path d="M 2.75 -1.40625 L 6.71875 -1.40625 L 6.71875 0 L 1.203125 0 L 1.203125 -9.171875 L 2.75 -9.171875 Z M 2.75 -1.40625 "/></g></g></g><g fill="#060606" fill-opacity="1"><g transform="translate(232.666919, 240.900423)"><g><path d="M 2.75 0 L 1.203125 0 L 1.203125 -9.171875 L 2.75 -9.171875 Z M 2.75 0 "/></g></g></g><g fill="#060606" fill-opacity="1"><g transform="translate(243.836672, 240.900423)"><g><path d="M 1.84375 -7.890625 C 2.78125 -8.773438 3.9375 -9.21875 5.3125 -9.21875 C 6.6875 -9.21875 7.835938 -8.773438 8.765625 -7.890625 C 9.703125 -7.003906 10.171875 -5.90625 10.171875 -4.59375 C 10.171875 -3.28125 9.703125 -2.175781 8.765625 -1.28125 C 7.835938 -0.382812 6.6875 0.0625 5.3125 0.0625 C 3.9375 0.0625 2.78125 -0.382812 1.84375 -1.28125 C 0.914062 -2.175781 0.453125 -3.28125 0.453125 -4.59375 C 0.453125 -5.90625 0.914062 -7.003906 1.84375 -7.890625 Z M 5.328125 -7.828125 C 4.410156 -7.828125 3.628906 -7.515625 2.984375 -6.890625 C 2.335938 -6.265625 2.015625 -5.492188 2.015625 -4.578125 C 2.015625 -3.671875 2.335938 -2.898438 2.984375 -2.265625 C 3.640625 -1.640625 4.414062 -1.328125 5.3125 -1.328125 C 6.21875 -1.328125 6.988281 -1.640625 7.625 -2.265625 C 8.269531 -2.898438 8.59375 -3.671875 8.59375 -4.578125 C 8.59375 -5.492188 8.269531 -6.265625 7.625 -6.890625 C 6.988281 -7.515625 6.222656 -7.828125 5.328125 -7.828125 Z M 5.328125 -7.828125 "/></g></g></g></svg>